<svg width="133" height="133" xmlns="http://www.w3.org/2000/svg" xmlns:xlink="http://www.w3.org/1999/xlink" xml:space="preserve" overflow="hidden"><defs><linearGradient x1="488.5" y1="402.5" x2="359.5" y2="273.5" gradientUnits="userSpaceOnUse" spreadMethod="reflect" id="fill0"><stop offset="0" stop-color="#FFDF81" stop-opacity="1"/><stop offset="0.18" stop-color="#FFDF81" stop-opacity="1"/><stop offset="0.53" stop-color="#FFE9B3" stop-opacity="1"/><stop offset="1" stop-color="#FFF3DA" stop-opacity="1"/></linearGradient></defs><g transform="translate(-357 -270)"><g><path d="M359.5 338C359.5 302.378 388.378 273.5 424 273.5 459.622 273.5 488.5 302.378 488.5 338 488.5 373.622 459.622 402.5 424 402.5 388.378 402.5 359.5 373.622 359.5 338Z" stroke="#000000" stroke-width="1.14583" stroke-linecap="butt" stroke-linejoin="miter" stroke-miterlimit="8" stroke-opacity="1" fill="url(#fill0)" fill-rule="evenodd"/><path d="M389.5 329.5C389.5 325.634 392.634 322.5 396.5 322.5 400.366 322.5 403.5 325.634 403.5 329.5 403.5 333.366 400.366 336.5 396.5 336.5 392.634 336.5 389.5 333.366 389.5 329.5Z" stroke="#000000" stroke-width="1.14583" stroke-linecap="butt" stroke-linejoin="miter" stroke-miterlimit="8" stroke-opacity="1" fill="#5B9BD5" fill-rule="evenodd" fill-opacity="1"/><path d="M385.5 305.5C385.5 301.634 388.634 298.5 392.5 298.5 396.366 298.5 399.5 301.634 399.5 305.5 399.5 309.366 396.366 312.5 392.5 312.5 388.634 312.5 385.5 309.366 385.5 305.5Z" stroke="#000000" stroke-width="1.14583" stroke-linecap="butt" stroke-linejoin="miter" stroke-miterlimit="8" stroke-opacity="1" fill="#5B9BD5" fill-rule="evenodd" fill-opacity="1"/><path d="M401.5 312.5C401.5 308.634 404.634 305.5 408.5 305.5 412.366 305.5 415.5 308.634 415.5 312.5 415.5 316.366 412.366 319.5 408.5 319.5 404.634 319.5 401.5 316.366 401.5 312.5Z" stroke="#000000" stroke-width="1.14583" stroke-linecap="butt" stroke-linejoin="miter" stroke-miterlimit="8" stroke-opacity="1" fill="#5B9BD5" fill-rule="evenodd" fill-opacity="1"/><path d="M408.5 295.5C408.5 291.634 411.634 288.5 415.5 288.5 419.366 288.5 422.5 291.634 422.5 295.5 422.5 299.366 419.366 302.5 415.5 302.5 411.634 302.5 408.5 299.366 408.5 295.5Z" stroke="#000000" stroke-width="1.14583" stroke-linecap="butt" stroke-linejoin="miter" stroke-miterlimit="8" stroke-opacity="1" fill="#5B9BD5" fill-rule="evenodd" fill-opacity="1"/><path d="M423.5 309.5C423.5 305.634 426.858 302.5 431 302.5 435.142 302.5 438.5 305.634 438.5 309.5 438.5 313.366 435.142 316.5 431 316.5 426.858 316.5 423.5 313.366 423.5 309.5Z" stroke="#000000" stroke-width="1.14583" stroke-linecap="butt" stroke-linejoin="miter" stroke-miterlimit="8" stroke-opacity="1" fill="#5B9BD5" fill-rule="evenodd" fill-opacity="1"/><path d="M443.5 352.5C443.5 348.634 446.634 345.5 450.5 345.5 454.366 345.5 457.5 348.634 457.5 352.5 457.5 356.366 454.366 359.5 450.5 359.5 446.634 359.5 443.5 356.366 443.5 352.5Z" stroke="#000000" stroke-width="1.14583" stroke-linecap="butt" stroke-linejoin="miter" stroke-miterlimit="8" stroke-opacity="1" fill="#00C0A0" fill-rule="evenodd" fill-opacity="1"/><path d="M450.5 338.5C450.5 334.634 453.634 331.5 457.5 331.5 461.366 331.5 464.5 334.634 464.5 338.5 464.5 342.366 461.366 345.5 457.5 345.5 453.634 345.5 450.5 342.366 450.5 338.5Z" stroke="#000000" stroke-width="1.14583" stroke-linecap="butt" stroke-linejoin="miter" stroke-miterlimit="8" stroke-opacity="1" fill="#00C0A0" fill-rule="evenodd" fill-opacity="1"/><path d="M457.5 366.5C457.5 362.634 460.634 359.5 464.5 359.5 468.366 359.5 471.5 362.634 471.5 366.5 471.5 370.366 468.366 373.5 464.5 373.5 460.634 373.5 457.5 370.366 457.5 366.5Z" stroke="#000000" stroke-width="1.14583" stroke-linecap="butt" stroke-linejoin="miter" stroke-miterlimit="8" stroke-opacity="1" fill="#00C0A0" fill-rule="evenodd" fill-opacity="1"/><path d="M463.5 329.5C463.5 325.634 466.634 322.5 470.5 322.5 474.366 322.5 477.5 325.634 477.5 329.5 477.5 333.366 474.366 336.5 470.5 336.5 466.634 336.5 463.5 333.366 463.5 329.5Z" stroke="#000000" stroke-width="1.14583" stroke-linecap="butt" stroke-linejoin="miter" stroke-miterlimit="8" stroke-opacity="1" fill="#00C0A0" fill-rule="evenodd" fill-opacity="1"/><path d="M441.5 368.5C441.5 364.634 444.634 361.5 448.5 361.5 452.366 361.5 455.5 364.634 455.5 368.5 455.5 372.366 452.366 375.5 448.5 375.5 444.634 375.5 441.5 372.366 441.5 368.5Z" stroke="#000000" stroke-width="1.14583" stroke-linecap="butt" stroke-linejoin="miter" stroke-miterlimit="8" stroke-opacity="1" fill="#00C0A0" fill-rule="evenodd" fill-opacity="1"/><path d="M379.5 361.5C379.5 357.634 382.634 354.5 386.5 354.5 390.366 354.5 393.5 357.634 393.5 361.5 393.5 365.366 390.366 368.5 386.5 368.5 382.634 368.5 379.5 365.366 379.5 361.5Z" stroke="#000000" stroke-width="1.14583" stroke-linecap="butt" stroke-linejoin="miter" stroke-miterlimit="8" stroke-opacity="1" fill="#D81B60" fill-rule="evenodd" fill-opacity="1"/><path d="M407.5 375.5C407.5 371.634 410.634 368.5 414.5 368.5 418.366 368.5 421.5 371.634 421.5 375.5 421.5 379.366 418.366 382.5 414.5 382.5 410.634 382.5 407.5 379.366 407.5 375.5Z" stroke="#000000" stroke-width="1.14583" stroke-linecap="butt" stroke-linejoin="miter" stroke-miterlimit="8" stroke-opacity="1" fill="#D81B60" fill-rule="evenodd" fill-opacity="1"/><path d="M408.5 352.5C408.5 348.634 411.634 345.5 415.5 345.5 419.366 345.5 422.5 348.634 422.5 352.5 422.5 356.366 419.366 359.5 415.5 359.5 411.634 359.5 408.5 356.366 408.5 352.5Z" stroke="#000000" stroke-width="1.14583" stroke-linecap="butt" stroke-linejoin="miter" stroke-miterlimit="8" stroke-opacity="1" fill="#D81B60" fill-rule="evenodd" fill-opacity="1"/><path d="M387.5 378.5C387.5 374.634 390.634 371.5 394.5 371.5 398.366 371.5 401.5 374.634 401.5 378.5 401.5 382.366 398.366 385.5 394.5 385.5 390.634 385.5 387.5 382.366 387.5 378.5Z" stroke="#000000" stroke-width="1.14583" stroke-linecap="butt" stroke-linejoin="miter" stroke-miterlimit="8" stroke-opacity="1" fill="#D81B60" fill-rule="evenodd" fill-opacity="1"/></g></g></svg>